<svg width="95" height="25" viewBox="0 0 95 25" version="1.1" xmlns="http://www.w3.org/2000/svg" xmlns:xlink="http://www.w3.org/1999/xlink">
<title>Group 2</title>
<desc>Created using Figma</desc>
<g id="Canvas" transform="translate(-1218 261)">
<g id="Group 2">
<g id="Foinn">
<use xlink:href="#path0_fill" transform="translate(1243.96 -261)" fill="#FFFFFF"/>
<use xlink:href="#path1_fill" transform="translate(1243.96 -261)" fill="#FFFFFF"/>
<use xlink:href="#path2_fill" transform="translate(1243.96 -261)" fill="#FFFFFF"/>
<use xlink:href="#path3_fill" transform="translate(1243.96 -261)" fill="#FFFFFF"/>
<use xlink:href="#path4_fill" transform="translate(1243.96 -261)" fill="#FFFFFF"/>
</g>
<g id="Group" opacity="0.8">
<g id="Union">
<use xlink:href="#path5_fill" transform="translate(1218 -257.189)" fill="#B8FFD5"/>
</g>
</g>
</g>
</g>
<defs>
<path id="path0_fill" d="M 12.4612 9.79853C 13.1143 9.79853 13.6246 9.98169 13.992 10.348C 14.3799 10.7143 14.5738 11.223 14.5738 11.8742C 14.5738 12.037 14.5636 12.21 14.5431 12.3932C 14.5227 12.556 14.4819 12.6984 14.4207 12.8205C 14.1553 12.7798 13.8594 12.7493 13.5328 12.7289C 13.2062 12.6882 12.8184 12.6679 12.3693 12.6679C 11.4508 12.6679 10.5323 12.7493 9.61379 12.9121C 8.69527 13.0749 7.81758 13.2072 6.98071 13.3089C 6.0622 15.466 5.30697 17.4908 4.71504 19.3834C 4.12311 21.2759 3.66385 23.1481 3.33727 25C 2.64328 24.8372 2.03094 24.5421 1.50024 24.1148C 0.969543 23.6874 0.469463 23.0871 0 22.3138C 0.14288 21.9882 0.316377 21.6015 0.520492 21.1538C 0.724606 20.6858 0.969543 20.1058 1.2553 19.4139C 1.54106 18.7017 1.87785 17.847 2.26567 16.8498C 2.6739 15.8323 3.15357 14.6215 3.70468 13.2173C 2.8474 12.9324 2.28608 12.4339 2.02073 11.7216C 2.12279 11.6199 2.40855 11.5079 2.87801 11.3858C 3.34748 11.2434 3.919 11.0908 4.59257 10.928C 4.89874 10.1343 5.16409 9.43223 5.38862 8.82173C 5.61314 8.19088 5.81726 7.60073 6.00096 7.05128C 6.18466 6.48148 6.34796 5.93203 6.49084 5.40293C 6.65413 4.85348 6.79701 4.2735 6.91948 3.663L 6.76639 3.663C 5.99076 3.663 5.358 3.47985 4.86813 3.11355C 4.39867 2.74725 4.16393 2.26903 4.16393 1.67888C 4.16393 1.51608 4.18434 1.32275 4.22517 1.0989C 4.2864 0.875051 4.35784 0.681726 4.43949 0.518926C 4.8273 0.579976 5.20492 0.620676 5.57232 0.641026C 5.96014 0.661376 6.46022 0.671551 7.07256 0.671551C 8.35848 0.671551 9.56276 0.641026 10.6854 0.579976C 11.808 0.498576 12.8184 0.417176 13.7165 0.335776C 14.635 0.254376 15.4208 0.18315 16.074 0.1221C 16.7272 0.0407003 17.2273 0 17.5742 0C 18.0437 0 18.4621 0.244201 18.8295 0.732601C 19.197 1.221 19.4827 1.9129 19.6868 2.8083C 19.0337 2.74725 18.503 2.70655 18.0947 2.6862C 17.7069 2.66585 17.3599 2.65568 17.0538 2.65568C 16.0128 2.65568 15.0534 2.70655 14.1757 2.8083C 13.3185 2.8897 12.502 2.99145 11.7264 3.11355C 11.6039 3.2967 11.461 3.53073 11.2977 3.81563C 11.1548 4.10053 10.9609 4.50753 10.716 5.03663C 10.4711 5.54538 10.1547 6.21693 9.76687 7.05128C 9.39947 7.88563 8.93 8.94383 8.35848 10.2259C 9.15453 10.1038 9.90975 10.002 10.6242 9.92064C 11.359 9.83924 11.9713 9.79853 12.4612 9.79853Z"/>
<path id="path1_fill" d="M 19.5677 23.5958C 18.4043 23.4737 17.4755 22.965 16.7815 22.0696C 16.0876 21.1742 15.7406 20.0346 15.7406 18.6508C 15.7406 17.8368 15.863 16.9923 16.108 16.1172C 16.3529 15.2422 16.6999 14.3976 17.149 13.5836C 17.598 12.7493 18.1287 11.9658 18.741 11.2332C 19.3534 10.5006 20.0168 9.86976 20.7312 9.34066C 21.8538 8.50631 22.905 8.08913 23.8847 8.08913C 24.5379 8.43508 25.1809 9.15751 25.8136 10.2564C 25.9157 10.2564 26.0075 10.2564 26.0892 10.2564C 26.1708 10.2361 26.2627 10.2259 26.3647 10.2259C 27.4465 10.2259 27.9874 11.1823 27.9874 13.0952C 27.9874 14.3773 27.7731 15.5983 27.3445 16.7582C 26.9362 17.8978 26.3545 18.9357 25.5993 19.8718C 24.8645 20.8079 23.9766 21.6015 22.9356 22.2527C 21.915 22.8836 20.7924 23.3313 19.5677 23.5958ZM 21.1292 13.9805C 20.7822 14.4485 20.4556 14.9573 20.1494 15.5067C 19.8433 16.0562 19.5779 16.6158 19.3534 17.1856C 19.1289 17.735 18.9554 18.2743 18.8329 18.8034C 18.7104 19.3122 18.6492 19.77 18.6492 20.177C 18.6492 20.6654 18.7308 21.1335 18.8941 21.5812C 19.0574 22.0289 19.2411 22.2833 19.4452 22.3443C 20.3638 22.1408 21.2006 21.7643 21.9558 21.2149C 22.7315 20.6451 23.3949 19.943 23.946 19.1087C 24.5175 18.2743 24.9563 17.328 25.2625 16.2698C 25.5891 15.2116 25.7524 14.0822 25.7524 12.8816C 25.7524 12.3525 25.7218 11.9353 25.6605 11.63C 25.5993 11.3248 25.4972 11.0602 25.3544 10.8364C 24.4563 11.1009 23.65 11.5283 22.9356 12.1184C 22.2416 12.7086 21.6395 13.3293 21.1292 13.9805Z"/>
<path id="path2_fill" d="M 29.5001 20.4823C 29.5001 20.2991 29.5103 20.0753 29.5307 19.8107C 29.5715 19.5258 29.6328 19.1595 29.7144 18.7118C 29.7961 18.2438 29.8981 17.6842 30.0206 17.033C 30.1635 16.3818 30.337 15.5983 30.5411 14.6825C 30.5819 14.479 30.6738 14.1534 30.8166 13.7057C 30.9595 13.258 31.1432 12.79 31.3678 12.3016C 31.6127 11.7928 31.8985 11.3044 32.225 10.8364C 32.572 10.3683 32.9803 10.0224 33.4497 9.79853C 33.7967 9.87993 34.256 10.0936 34.8275 10.4396C 35.399 10.7652 35.8889 11.223 36.2971 11.8132C 35.8277 12.3423 35.4296 12.8714 35.103 13.4005C 34.7969 13.9296 34.5111 14.479 34.2458 15.0488C 34.0008 15.6186 33.7661 16.2088 33.5416 16.8193C 33.3375 17.4298 33.1027 18.0708 32.8374 18.7424C 32.6129 19.3122 32.4087 19.9023 32.225 20.5128C 32.0413 21.103 31.9393 21.6219 31.9189 22.0696C 31.9189 22.4359 31.9087 22.6903 31.8882 22.8327C 31.8882 22.9955 31.8372 23.0769 31.7352 23.0769C 31.6535 23.0769 31.4902 23.026 31.2453 22.9243C 31.0003 22.8225 30.7452 22.6699 30.4799 22.4664C 30.2349 22.2426 30.0104 21.9678 29.8063 21.6422C 29.6022 21.3166 29.5001 20.93 29.5001 20.4823ZM 35.348 7.23443C 35.348 7.11233 35.3786 6.92918 35.4398 6.68498C 35.3378 6.58323 35.2459 6.43061 35.1643 6.22711C 35.103 6.02361 35.0724 5.84046 35.0724 5.67766C 35.0724 5.49451 35.0928 5.25031 35.1337 4.94506C 35.1949 4.61945 35.2663 4.2735 35.348 3.9072C 35.4296 3.5409 35.5317 3.16443 35.6542 2.77778C 35.7766 2.37078 35.8991 2.00448 36.0216 1.67888C 36.2665 1.67888 36.5625 1.7501 36.9095 1.89255C 37.2769 2.01465 37.6443 2.18763 38.0117 2.41148C 38.3791 2.61498 38.7159 2.849 39.022 3.11355C 39.3282 3.35775 39.5629 3.59178 39.7262 3.81563C 39.5017 4.03948 39.2057 4.3549 38.8383 4.76191C 38.4709 5.14856 38.1137 5.56573 37.7667 6.01343C 37.4197 6.44078 37.1034 6.84778 36.8176 7.23443C 36.5318 7.62108 36.3481 7.89581 36.2665 8.05861C 36.0216 8.01791 35.8072 7.91616 35.6235 7.75336C 35.4398 7.57021 35.348 7.39723 35.348 7.23443Z"/>
<path id="path3_fill" d="M 41.6652 7.72283C 42.1959 7.88563 42.6959 8.25193 43.1654 8.82173C 43.6349 9.37118 43.9819 9.98168 44.2064 10.6532C 43.9819 11.2027 43.6349 11.8641 43.1654 12.6374C 42.6959 13.4107 42.2265 14.2043 41.757 15.0183C 41.2876 15.812 40.8589 16.5751 40.4711 17.3077C 40.1037 18.0199 39.8894 18.6101 39.8281 19.0781C 40.1547 18.7322 40.5119 18.3354 40.8997 17.8877C 41.308 17.4196 41.6958 16.9617 42.0632 16.514C 42.451 16.046 42.8082 15.6288 43.1348 15.2625C 43.4614 14.8759 43.7165 14.591 43.9002 14.4078C 44.288 14.0008 44.7473 13.5328 45.278 13.0037C 45.8087 12.4542 46.3598 11.9455 46.9313 11.4774C 47.5232 10.989 48.1152 10.582 48.7071 10.2564C 49.299 9.91046 49.8399 9.73749 50.3298 9.73749C 50.8605 9.73749 51.2994 9.92063 51.6464 10.2869C 52.0138 10.6329 52.2995 10.9992 52.5036 11.3858C 52.5036 11.4265 52.422 11.4876 52.2587 11.569C 52.1158 11.63 51.9015 11.8234 51.6157 12.149C 51.33 12.5153 51.0034 13.024 50.636 13.6752C 50.289 14.3061 49.942 14.998 49.595 15.7509C 49.2684 16.4835 48.9929 17.2365 48.7683 18.0098C 48.5438 18.7831 48.4316 19.4851 48.4316 20.116C 48.4316 20.6247 48.4928 20.9503 48.6153 21.0928C 48.7581 21.2352 48.952 21.3065 49.197 21.3065C 49.4215 21.3065 49.6562 21.2556 49.9012 21.1538C 50.1461 21.0521 50.34 21.0012 50.4829 21.0012C 50.5646 21.0419 50.6258 21.1335 50.6666 21.2759C 50.7278 21.398 50.7585 21.51 50.7585 21.6117C 50.5952 21.7542 50.4013 21.8966 50.1767 22.0391C 49.9522 22.1815 49.7175 22.3138 49.4725 22.4359C 49.2276 22.558 48.9827 22.6597 48.7377 22.7411C 48.5132 22.8225 48.3091 22.8632 48.1254 22.8632C 47.5335 22.8632 47.0436 22.7717 46.6558 22.5885C 46.2884 22.4257 45.9924 22.2019 45.7679 21.917C 45.5638 21.6321 45.4209 21.2963 45.3392 20.9096C 45.2576 20.5026 45.2168 20.0753 45.2168 19.6276C 45.2168 19.3834 45.2372 19.1087 45.278 18.8034C 45.3188 18.4982 45.4005 18.142 45.5229 17.735C 45.6454 17.3077 45.8189 16.8091 46.0434 16.2393C 46.2679 15.6492 46.5537 14.9471 46.9007 14.1331C 46.8599 14.1331 46.5843 14.2755 46.074 14.5604C 45.5637 14.8453 45.0126 15.2829 44.4207 15.873C 43.4614 16.7888 42.5939 17.6943 41.8183 18.5897C 41.063 19.4851 40.2874 20.4823 39.4913 21.5812C 39.0423 22.212 38.6443 22.7411 38.2973 23.1685C 37.9707 23.6162 37.6849 23.9113 37.44 24.0537C 37.0114 23.8095 36.695 23.4636 36.4909 23.0159C 36.2868 22.5885 36.1337 22.1408 36.0316 21.6728C 36.0316 21.2861 36.0826 20.7977 36.1847 20.2076C 36.3072 19.6174 36.4602 18.9662 36.6439 18.254C 36.8481 17.5214 37.093 16.7582 37.3788 15.9646C 37.6645 15.1709 37.9809 14.3773 38.3279 13.5836C 39.1035 11.7928 39.8077 10.3887 40.4405 9.37119C 41.0936 8.35368 41.5019 7.80423 41.6652 7.72283Z"/>
<path id="path4_fill" d="M 58.1996 7.72283C 58.7303 7.88563 59.2304 8.25193 59.6999 8.82173C 60.1693 9.37118 60.5163 9.98168 60.7408 10.6532C 60.5163 11.2027 60.1693 11.8641 59.6999 12.6374C 59.2304 13.4107 58.7609 14.2043 58.2915 15.0183C 57.822 15.812 57.3934 16.5751 57.0056 17.3077C 56.6381 18.0199 56.4238 18.6101 56.3626 19.0781C 56.6892 18.7322 57.0464 18.3354 57.4342 17.8877C 57.8424 17.4196 58.2302 16.9617 58.5976 16.514C 58.9855 16.046 59.3427 15.6288 59.6692 15.2625C 59.9958 14.8759 60.251 14.591 60.4347 14.4078C 60.8225 14.0008 61.2818 13.5328 61.8124 13.0037C 62.3431 12.4542 62.8943 11.9455 63.4658 11.4774C 64.0577 10.989 64.6496 10.582 65.2416 10.2564C 65.8335 9.91046 66.3744 9.73749 66.8643 9.73749C 67.395 9.73749 67.8338 9.92063 68.1808 10.2869C 68.5482 10.6329 68.834 10.9992 69.0381 11.3858C 69.0381 11.4265 68.9565 11.4876 68.7932 11.569C 68.6503 11.63 68.436 11.8234 68.1502 12.149C 67.8644 12.5153 67.5379 13.024 67.1705 13.6752C 66.8235 14.3061 66.4765 14.998 66.1295 15.7509C 65.8029 16.4835 65.5273 17.2365 65.3028 18.0098C 65.0783 18.7831 64.966 19.4851 64.966 20.116C 64.966 20.6247 65.0272 20.9503 65.1497 21.0928C 65.2926 21.2352 65.4865 21.3065 65.7314 21.3065C 65.956 21.3065 66.1907 21.2556 66.4356 21.1538C 66.6806 21.0521 66.8745 21.0012 67.0174 21.0012C 67.099 21.0419 67.1602 21.1335 67.2011 21.2759C 67.2623 21.398 67.2929 21.51 67.2929 21.6117C 67.1296 21.7542 66.9357 21.8966 66.7112 22.0391C 66.4867 22.1815 66.2519 22.3138 66.007 22.4359C 65.7621 22.558 65.5171 22.6597 65.2722 22.7411C 65.0477 22.8225 64.8435 22.8632 64.6598 22.8632C 64.0679 22.8632 63.578 22.7717 63.1902 22.5885C 62.8228 22.4257 62.5269 22.2019 62.3023 21.917C 62.0982 21.6321 61.9553 21.2963 61.8737 20.9096C 61.792 20.5026 61.7512 20.0753 61.7512 19.6276C 61.7512 19.3834 61.7716 19.1087 61.8124 18.8034C 61.8533 18.4982 61.9349 18.142 62.0574 17.735C 62.1799 17.3077 62.3533 16.8091 62.5779 16.2393C 62.8024 15.6492 63.0882 14.9471 63.4352 14.1331C 63.3943 14.1331 63.1188 14.2755 62.6085 14.5604C 62.0982 14.8453 61.5471 15.2829 60.9552 15.873C 59.9958 16.7888 59.1283 17.6943 58.3527 18.5897C 57.5975 19.4851 56.8219 20.4823 56.0258 21.5812C 55.5768 22.212 55.1787 22.7411 54.8317 23.1685C 54.5052 23.6162 54.2194 23.9113 53.9745 24.0537C 53.5458 23.8095 53.2294 23.4636 53.0253 23.0159C 52.8212 22.5885 52.6681 22.1408 52.5661 21.6728C 52.5661 21.2861 52.6171 20.7977 52.7192 20.2076C 52.8416 19.6174 52.9947 18.9662 53.1784 18.254C 53.3825 17.5214 53.6275 16.7582 53.9132 15.9646C 54.199 15.1709 54.5154 14.3773 54.8624 13.5836C 55.638 11.7928 56.3422 10.3887 56.9749 9.37119C 57.6281 8.35368 58.0363 7.80423 58.1996 7.72283Z"/>
<path id="path5_fill" fill-rule="evenodd" d="M 6.92975 0L 9.19269 1.81143L 7.98615 3.30963L 6.48346 2.10675L 3.44587 5.87869C 3.11469 6.28995 2.67756 6.51984 2.13447 6.5683C 1.60334 6.62622 1.13141 6.49005 0.718938 6.15985C 0.306341 5.82965 0.0711113 5.39972 0.0130058 4.87012C -0.0450996 4.34048 0.091497 3.87003 0.422674 3.45877C 0.753851 3.04749 1.18512 2.8129 1.71637 2.755C 2.25702 2.68533 2.73359 2.81561 3.14618 3.14581C 3.39362 3.34393 3.59028 3.61728 3.73603 3.96585L 6.92975 0ZM 11.0792 2.42212L 15.1771 3.39917L 14.5262 6.11218L 11.805 5.46335L 10.1666 12.2938C 9.98786 13.0385 9.55732 13.6107 8.87482 14.0104C 8.21357 14.4151 7.50959 14.5284 6.76252 14.3503C 6.01557 14.1722 5.43903 13.7536 5.03315 13.0944C 4.62714 12.4352 4.51349 11.7332 4.69208 10.9885C 4.87079 10.2437 5.29072 9.66898 5.95185 9.26422C 6.61811 8.8382 7.32477 8.71426 8.07172 8.89236C 8.51996 8.99924 8.94819 9.23633 9.35651 9.60361L 11.0792 2.42212ZM 16.0678 8.55035L 14.1025 9.26639L 15.3651 12.7106C 15.0949 12.6702 14.8525 12.6891 14.6375 12.7674C 14.2792 12.898 14.0208 13.1425 13.8621 13.5011C 13.6998 13.8494 13.684 14.2022 13.815 14.5594C 13.9459 14.9166 14.1861 15.1761 14.5355 15.338C 14.885 15.4999 15.2387 15.5155 15.597 15.385C 15.9553 15.2545 16.2155 15.015 16.3779 14.6667C 16.5506 14.3146 16.5714 13.9599 16.4405 13.6028L 15.2397 10.327L 16.5447 9.85147L 16.0678 8.55035Z"/>
</defs>
</svg>
