<svg width="247" height="185" viewBox="0 0 247 185" version="1.1" xmlns="http://www.w3.org/2000/svg" xmlns:xlink="http://www.w3.org/1999/xlink">
<title>Group 2</title>
<desc>Created using Figma</desc>
<g id="Canvas" transform="translate(-269 73)">
<g id="Group 2">
<g id="Foinn">
<use xlink:href="#path0_fill" transform="translate(269.317 22.558)" fill="#FFFFFF"/>
<use xlink:href="#path1_fill" transform="translate(269.317 22.558)" fill="#FFFFFF"/>
<use xlink:href="#path2_fill" transform="translate(269.317 22.558)" fill="#FFFFFF"/>
<use xlink:href="#path3_fill" transform="translate(269.317 22.558)" fill="#FFFFFF"/>
<use xlink:href="#path4_fill" transform="translate(269.317 22.558)" fill="#FFFFFF"/>
</g>
<g id="Group" opacity="0.8">
<g id="Union">
<use xlink:href="#path5_fill" transform="translate(375.791 -72.5317)" fill="#B8FFD5"/>
</g>
</g>
</g>
</g>
<defs>
<path id="path0_fill" d="M 44.363 34.989C 46.6883 34.989 48.505 35.643 49.813 36.951C 51.1937 38.259 51.884 40.0757 51.884 42.401C 51.884 42.9823 51.8477 43.6 51.775 44.254C 51.7023 44.8353 51.557 45.344 51.339 45.78C 50.3943 45.6347 49.3407 45.5257 48.178 45.453C 47.0153 45.3077 45.6347 45.235 44.036 45.235C 40.766 45.235 37.496 45.5257 34.226 46.107C 30.956 46.6883 27.8313 47.1607 24.852 47.524C 21.582 55.2267 18.8933 62.457 16.786 69.215C 14.6787 75.973 13.0437 82.6583 11.881 89.271C 9.41033 88.6897 7.23033 87.636 5.341 86.11C 3.45167 84.584 1.67133 82.4403 0 79.679C 0.508667 78.5163 1.12633 77.1357 1.853 75.537C 2.57967 73.8657 3.45167 71.7947 4.469 69.324C 5.48633 66.7807 6.68533 63.7287 8.066 60.168C 9.51933 56.5347 11.227 52.211 13.189 47.197C 10.137 46.1797 8.13867 44.3993 7.194 41.856C 7.55733 41.4927 8.57467 41.093 10.246 40.657C 11.9173 40.1483 13.952 39.6033 16.35 39.022C 17.44 36.188 18.3847 33.681 19.184 31.501C 19.9833 29.2483 20.71 27.141 21.364 25.179C 22.018 23.1443 22.5993 21.1823 23.108 19.293C 23.6893 17.331 24.198 15.26 24.634 13.08L 24.089 13.08C 21.3277 13.08 19.075 12.426 17.331 11.118C 15.6597 9.81 14.824 8.10234 14.824 5.995C 14.824 5.41367 14.8967 4.72333 15.042 3.924C 15.26 3.12467 15.5143 2.43433 15.805 1.853C 17.1857 2.071 18.53 2.21633 19.838 2.289C 21.2187 2.36167 22.999 2.398 25.179 2.398C 29.757 2.398 34.0443 2.289 38.041 2.071C 42.0377 1.78034 45.6347 1.48967 48.832 1.199C 52.102 0.908335 54.8997 0.654001 57.225 0.436001C 59.5503 0.145334 61.3307 0 62.566 0C 64.2373 0 65.727 0.872001 67.035 2.616C 68.343 4.36 69.3603 6.83067 70.087 10.028C 67.7617 9.81 65.8723 9.66467 64.419 9.592C 63.0383 9.51934 61.803 9.483 60.713 9.483C 57.007 9.483 53.5917 9.66467 50.467 10.028C 47.415 10.3187 44.5083 10.682 41.747 11.118C 41.311 11.772 40.8023 12.6077 40.221 13.625C 39.7123 14.6423 39.022 16.0957 38.15 17.985C 37.278 19.8017 36.1517 22.1997 34.771 25.179C 33.463 28.1583 31.7917 31.937 29.757 36.515C 32.591 36.079 35.2797 35.7157 37.823 35.425C 40.439 35.1343 42.619 34.989 44.363 34.989Z"/>
<path id="path1_fill" d="M 69.6629 84.257C 65.5209 83.821 62.2146 82.0043 59.7439 78.807C 57.2733 75.6097 56.0379 71.5403 56.0379 66.599C 56.0379 63.6923 56.4739 60.6767 57.3459 57.552C 58.2179 54.4273 59.4533 51.4117 61.0519 48.505C 62.6506 45.5257 64.5399 42.728 66.7199 40.112C 68.8999 37.496 71.2616 35.2433 73.8049 33.354C 77.8016 30.3747 81.5439 28.885 85.0319 28.885C 87.3573 30.1203 89.6462 32.7 91.8989 36.624C 92.2623 36.624 92.5893 36.624 92.8799 36.624C 93.1706 36.5513 93.4976 36.515 93.8609 36.515C 97.7123 36.515 99.6379 39.9303 99.6379 46.761C 99.6379 51.339 98.8749 55.699 97.3489 59.841C 95.8956 63.9103 93.8246 67.6163 91.1359 70.959C 88.5199 74.3017 85.3589 77.1357 81.6529 79.461C 78.0196 81.7137 74.0229 83.3123 69.6629 84.257ZM 75.2219 49.922C 73.9866 51.5933 72.8239 53.41 71.7339 55.372C 70.6439 57.334 69.6992 59.3323 68.8999 61.367C 68.1006 63.329 67.4829 65.2547 67.0469 67.144C 66.6109 68.9607 66.3929 70.5957 66.3929 72.049C 66.3929 73.793 66.6836 75.4643 67.2649 77.063C 67.8463 78.6617 68.5003 79.57 69.2269 79.788C 72.4969 79.0613 75.4762 77.717 78.1649 75.755C 80.9262 73.7203 83.2879 71.2133 85.2499 68.234C 87.2846 65.2547 88.8469 61.8757 89.9369 58.097C 91.0996 54.3183 91.6809 50.2853 91.6809 45.998C 91.6809 44.1087 91.5719 42.619 91.3539 41.529C 91.1359 40.439 90.7726 39.4943 90.2639 38.695C 87.0666 39.6397 84.1963 41.1657 81.6529 43.273C 79.1823 45.3803 77.0386 47.5967 75.2219 49.922Z"/>
<path id="path2_fill" d="M 105.023 73.139C 105.023 72.485 105.06 71.6857 105.132 70.741C 105.278 69.7237 105.496 68.4157 105.786 66.817C 106.077 65.1457 106.44 63.1473 106.876 60.822C 107.385 58.4967 108.003 55.699 108.729 52.429C 108.875 51.7023 109.202 50.5397 109.71 48.941C 110.219 47.3423 110.873 45.671 111.672 43.927C 112.544 42.1103 113.562 40.3663 114.724 38.695C 115.96 37.0237 117.413 35.7883 119.084 34.989C 120.32 35.2797 121.955 36.0427 123.989 37.278C 126.024 38.4407 127.768 40.0757 129.221 42.183C 127.55 44.0723 126.133 45.9617 124.97 47.851C 123.88 49.7403 122.863 51.7023 121.918 53.737C 121.046 55.7717 120.211 57.879 119.411 60.059C 118.685 62.239 117.849 64.528 116.904 66.926C 116.105 68.9607 115.378 71.068 114.724 73.248C 114.07 75.3553 113.707 77.2083 113.634 78.807C 113.634 80.115 113.598 81.0233 113.525 81.532C 113.525 82.1133 113.344 82.404 112.98 82.404C 112.69 82.404 112.108 82.2223 111.236 81.859C 110.364 81.4957 109.456 80.9507 108.511 80.224C 107.639 79.4247 106.84 78.4437 106.113 77.281C 105.387 76.1183 105.023 74.7377 105.023 73.139ZM 125.842 25.833C 125.842 25.397 125.951 24.743 126.169 23.871C 125.806 23.5077 125.479 22.9627 125.188 22.236C 124.97 21.5093 124.861 20.8553 124.861 20.274C 124.861 19.62 124.934 18.748 125.079 17.658C 125.297 16.4953 125.552 15.26 125.842 13.952C 126.133 12.644 126.496 11.2997 126.932 9.919C 127.368 8.46567 127.804 7.15767 128.24 5.995C 129.112 5.995 130.166 6.24934 131.401 6.758C 132.709 7.194 134.017 7.81167 135.325 8.611C 136.633 9.33767 137.832 10.1733 138.922 11.118C 140.012 11.99 140.848 12.8257 141.429 13.625C 140.63 14.4243 139.576 15.5507 138.268 17.004C 136.96 18.3847 135.689 19.8743 134.453 21.473C 133.218 22.999 132.092 24.4523 131.074 25.833C 130.057 27.2137 129.403 28.1947 129.112 28.776C 128.24 28.6307 127.477 28.2673 126.823 27.686C 126.169 27.032 125.842 26.4143 125.842 25.833Z"/>
<path id="path3_fill" d="M 148.332 27.577C 150.221 28.1583 152.002 29.4663 153.673 31.501C 155.344 33.463 156.58 35.643 157.379 38.041C 156.58 40.003 155.344 42.3647 153.673 45.126C 152.002 47.8873 150.33 50.7213 148.659 53.628C 146.988 56.462 145.462 59.187 144.081 61.803C 142.773 64.3463 142.01 66.4537 141.792 68.125C 142.955 66.8897 144.226 65.4727 145.607 63.874C 147.06 62.2027 148.441 60.5677 149.749 58.969C 151.13 57.2977 152.401 55.808 153.564 54.5C 154.727 53.1193 155.635 52.102 156.289 51.448C 157.67 49.9947 159.305 48.3233 161.194 46.434C 163.083 44.472 165.045 42.6553 167.08 40.984C 169.187 39.24 171.295 37.7867 173.402 36.624C 175.509 35.3887 177.435 34.771 179.179 34.771C 181.068 34.771 182.631 35.425 183.866 36.733C 185.174 37.9683 186.191 39.2763 186.918 40.657C 186.918 40.8023 186.627 41.0203 186.046 41.311C 185.537 41.529 184.774 42.2193 183.757 43.382C 182.74 44.69 181.577 46.5067 180.269 48.832C 179.034 51.0847 177.798 53.5553 176.563 56.244C 175.4 58.86 174.419 61.5487 173.62 64.31C 172.821 67.0713 172.421 69.5783 172.421 71.831C 172.421 73.6477 172.639 74.8103 173.075 75.319C 173.584 75.8277 174.274 76.082 175.146 76.082C 175.945 76.082 176.781 75.9003 177.653 75.537C 178.525 75.1737 179.215 74.992 179.724 74.992C 180.015 75.1373 180.233 75.4643 180.378 75.973C 180.596 76.409 180.705 76.8087 180.705 77.172C 180.124 77.6807 179.433 78.1893 178.634 78.698C 177.835 79.2067 176.999 79.679 176.127 80.115C 175.255 80.551 174.383 80.9143 173.511 81.205C 172.712 81.4957 171.985 81.641 171.331 81.641C 169.224 81.641 167.48 81.314 166.099 80.66C 164.791 80.0787 163.737 79.2793 162.938 78.262C 162.211 77.2447 161.703 76.0457 161.412 74.665C 161.121 73.2117 160.976 71.6857 160.976 70.087C 160.976 69.215 161.049 68.234 161.194 67.144C 161.339 66.054 161.63 64.7823 162.066 63.329C 162.502 61.803 163.12 60.0227 163.919 57.988C 164.718 55.8807 165.736 53.3737 166.971 50.467C 166.826 50.467 165.845 50.9757 164.028 51.993C 162.211 53.0103 160.249 54.5727 158.142 56.68C 154.727 59.95 151.638 63.1837 148.877 66.381C 146.188 69.5783 143.427 73.139 140.593 77.063C 138.994 79.3157 137.577 81.205 136.342 82.731C 135.179 84.3297 134.162 85.3833 133.29 85.892C 131.764 85.02 130.638 83.7847 129.911 82.186C 129.184 80.66 128.639 79.0613 128.276 77.39C 128.276 76.0093 128.458 74.2653 128.821 72.158C 129.257 70.0507 129.802 67.7253 130.456 65.182C 131.183 62.566 132.055 59.841 133.072 57.007C 134.089 54.173 135.216 51.339 136.451 48.505C 139.212 42.1103 141.719 37.0963 143.972 33.463C 146.297 29.8297 147.751 27.8677 148.332 27.577Z"/>
<path id="path4_fill" d="M 207.196 27.577C 209.086 28.1583 210.866 29.4663 212.537 31.501C 214.209 33.463 215.444 35.643 216.243 38.041C 215.444 40.003 214.209 42.3647 212.537 45.126C 210.866 47.8873 209.195 50.7213 207.523 53.628C 205.852 56.462 204.326 59.187 202.945 61.803C 201.637 64.3463 200.874 66.4537 200.656 68.125C 201.819 66.8897 203.091 65.4727 204.471 63.874C 205.925 62.2027 207.305 60.5677 208.613 58.969C 209.994 57.2977 211.266 55.808 212.428 54.5C 213.591 53.1193 214.499 52.102 215.153 51.448C 216.534 49.9947 218.169 48.3233 220.058 46.434C 221.948 44.472 223.91 42.6553 225.944 40.984C 228.052 39.24 230.159 37.7867 232.266 36.624C 234.374 35.3887 236.299 34.771 238.043 34.771C 239.933 34.771 241.495 35.425 242.73 36.733C 244.038 37.9683 245.056 39.2763 245.782 40.657C 245.782 40.8023 245.492 41.0203 244.91 41.311C 244.402 41.529 243.639 42.2193 242.621 43.382C 241.604 44.69 240.441 46.5067 239.133 48.832C 237.898 51.0847 236.663 53.5553 235.427 56.244C 234.265 58.86 233.284 61.5487 232.484 64.31C 231.685 67.0713 231.285 69.5783 231.285 71.831C 231.285 73.6477 231.503 74.8103 231.939 75.319C 232.448 75.8277 233.138 76.082 234.01 76.082C 234.81 76.082 235.645 75.9003 236.517 75.537C 237.389 75.1737 238.08 74.992 238.588 74.992C 238.879 75.1373 239.097 75.4643 239.242 75.973C 239.46 76.409 239.569 76.8087 239.569 77.172C 238.988 77.6807 238.298 78.1893 237.498 78.698C 236.699 79.2067 235.863 79.679 234.991 80.115C 234.119 80.551 233.247 80.9143 232.375 81.205C 231.576 81.4957 230.849 81.641 230.195 81.641C 228.088 81.641 226.344 81.314 224.963 80.66C 223.655 80.0787 222.602 79.2793 221.802 78.262C 221.076 77.2447 220.567 76.0457 220.276 74.665C 219.986 73.2117 219.84 71.6857 219.84 70.087C 219.84 69.215 219.913 68.234 220.058 67.144C 220.204 66.054 220.494 64.7823 220.93 63.329C 221.366 61.803 221.984 60.0227 222.783 57.988C 223.583 55.8807 224.6 53.3737 225.835 50.467C 225.69 50.467 224.709 50.9757 222.892 51.993C 221.076 53.0103 219.114 54.5727 217.006 56.68C 213.591 59.95 210.503 63.1837 207.741 66.381C 205.053 69.5783 202.291 73.139 199.457 77.063C 197.859 79.3157 196.442 81.205 195.206 82.731C 194.044 84.3297 193.026 85.3833 192.154 85.892C 190.628 85.02 189.502 83.7847 188.775 82.186C 188.049 80.66 187.504 79.0613 187.14 77.39C 187.14 76.0093 187.322 74.2653 187.685 72.158C 188.121 70.0507 188.666 67.7253 189.32 65.182C 190.047 62.566 190.919 59.841 191.936 57.007C 192.954 54.173 194.08 51.339 195.315 48.505C 198.077 42.1103 200.584 37.0963 202.836 33.463C 205.162 29.8297 206.615 27.8677 207.196 27.577Z"/>
<path id="path5_fill" fill-rule="evenodd" d="M 24.6705 0L 32.7267 6.46826L 28.4314 11.8181L 23.0815 7.52278L 12.2674 20.9918C 11.0883 22.4604 9.53217 23.2812 7.599 23.4543C 5.70779 23.6611 4.02789 23.1749 2.5593 21.9958C 1.0907 20.8167 0.253021 19.2815 0.0462646 17.3903C -0.160492 15.4991 0.325653 13.8192 1.50479 12.3506C 2.6839 10.882 4.21906 10.0444 6.11026 9.83759C 8.03516 9.58886 9.7319 10.0541 11.2005 11.2332C 12.0816 11.9406 12.7816 12.9167 13.3005 14.1614L 24.6705 0ZM 39.4429 8.64884L 54.0315 12.1378L 51.7146 21.8255L 42.0269 19.5086L 36.1938 43.899C 35.5577 46.5583 34.0248 48.6016 31.595 50.0287C 29.2411 51.4739 26.7345 51.8786 24.0752 51.2426C 21.4158 50.6066 19.3635 49.1116 17.9182 46.7578C 16.4729 44.4039 16.0683 41.8973 16.7043 39.2379C 17.3403 36.5786 18.8352 34.5262 21.1891 33.081C 23.5611 31.5597 26.0768 31.1171 28.7362 31.7531C 30.3318 32.1347 31.8564 32.9813 33.3099 34.2929L 39.4429 8.64884ZM 57.2025 30.5317L 50.206 33.0887L 54.7006 45.3873C 53.7391 45.243 52.8757 45.3106 52.1105 45.5903C 50.8351 46.0564 49.915 46.9297 49.3502 48.21C 48.7721 49.454 48.7162 50.7137 49.1823 51.9891C 49.6483 53.2645 50.5034 54.1912 51.7473 54.7693C 52.9913 55.3474 54.2509 55.4034 55.5264 54.9373C 56.8018 54.4712 57.7285 53.6161 58.3066 52.3722C 58.9211 51.1149 58.9953 49.8486 58.5292 48.5732L 54.2543 36.8758L 58.9005 35.1779L 57.2025 30.5317Z"/>
</defs>
</svg>
